<svg width="1183" height="418" viewBox="0 0 1183 418" fill="none" xmlns="http://www.w3.org/2000/svg">
<path fill-rule="evenodd" clip-rule="evenodd" d="M832.975 0.362087C831.05 0.694087 828.386 1.55709 827.056 2.27809C825.725 2.99909 817.175 6.64209 808.056 10.3741L791.475 17.1591L791.539 20.4981C791.574 22.3341 791.923 31.8831 792.313 41.7181L793.024 59.5981L782.75 58.9531C777.099 58.5981 768.763 58.0361 764.225 57.7041L755.975 57.1001V71.2191C755.975 78.9841 756.087 85.6751 756.225 86.0871C756.363 86.4991 764.625 86.6691 774.587 86.4641L792.699 86.0921L793.184 106.964C793.451 118.444 793.315 138.637 792.883 151.837C790.764 216.519 790.678 230.463 792.343 239.837C795.922 259.985 806.789 273.164 824.975 279.416C830.298 281.245 834.192 281.714 846.475 282.004C859.72 282.316 863.113 282.034 875.475 279.588L889.475 276.818L889.769 267.827C889.931 262.883 889.816 257.85 889.514 256.643L888.965 254.448L883.573 256.303C860.367 264.287 844.951 258.937 837.932 240.465C834.193 230.625 833.643 218.921 834.332 163.837C834.689 135.237 835.273 106.037 835.63 98.9481L836.278 86.0591L866.876 86.5501L897.475 87.0411V72.7371V58.4331L867.281 59.0441L837.087 59.6541L837.51 54.2461C837.743 51.2711 838.427 38.7121 839.029 26.3371C839.632 13.9621 840.329 3.10409 840.578 2.20909C841.128 0.237088 838.039 -0.513913 832.975 0.362087ZM103.475 53.2811C87.8358 55.1021 73.0858 59.0421 60.9748 64.6311C37.3028 75.5571 17.9288 96.6541 8.54485 121.724C2.65385 137.462 1.47485 145.234 1.47485 168.337C1.47485 189.367 2.24185 196.129 6.18285 209.837C15.3389 241.682 41.1808 267.74 72.6488 276.859C98.7318 284.418 129.275 284.236 152.975 276.381C162.661 273.17 178.61 265.02 185.991 259.508L192.508 254.642L193.846 243.24C195.876 225.939 196.063 227.237 191.142 224.503L186.808 222.095L180.935 228.134C166.663 242.811 146.44 252.71 126.357 254.851C112.943 256.28 91.7768 251.656 81.2128 244.987C75.0688 241.109 67.0099 232.505 62.6949 225.22C59.4179 219.686 57.1668 213.491 51.6568 194.837C50.3168 190.301 50.0078 153.087 51.2398 144.514C53.1138 131.468 59.2788 113.874 65.2028 104.669C69.5228 97.9571 73.4848 93.8511 80.4748 88.8461C91.9278 80.6441 104.156 76.9131 119.475 76.9471C128.325 76.9661 130.395 77.3331 137.475 80.1371C141.875 81.8801 148.175 85.0991 151.475 87.2911C158.815 92.1671 166.548 99.0981 165.649 99.9961C165.286 100.36 165.861 101.269 166.928 102.017C167.996 102.765 169.876 105.167 171.106 107.357C173.306 111.271 173.439 111.337 179.048 111.337H184.752L185.434 107.587C186.627 101.026 190.154 90.0441 193.17 83.5051C194.776 80.0231 195.952 76.4551 195.783 75.5761C194.935 71.1761 175.532 61.4441 159.361 57.3081C144.341 53.4661 118.111 51.5761 103.475 53.2811ZM608.975 52.9521C586.98 55.6501 570.605 63.6511 556.781 78.4531C555.3 80.0391 553.772 81.3371 553.385 81.3371C552.999 81.3371 552.995 75.7121 553.377 68.8371C553.893 59.5631 553.77 56.3371 552.902 56.3371C552.258 56.3371 547.053 57.0321 541.336 57.8811C531.88 59.2851 529.803 59.2781 518.368 57.8041C511.453 56.9121 505.605 56.3741 505.372 56.6071C505.139 56.8401 505.716 64.4121 506.654 73.4341C508.101 87.3521 508.368 101.731 508.417 168.337C508.468 236.935 508.254 248.74 506.725 261.927C505.763 270.227 504.975 277.231 504.975 277.493C504.975 277.755 516.504 277.96 530.594 277.948L556.214 277.926L555.57 270.821C553.499 247.971 553.03 232.901 553.004 188.337C552.974 136.102 553.309 131.236 557.845 118.165C561.712 107.024 570.734 96.0521 579.854 91.3991C591.4 85.5091 613.468 84.5831 624.171 89.5391C638.823 96.3241 647.065 111.854 650.07 138.337C651.494 150.887 650.753 197.627 648.508 236.837C647.689 251.137 647.009 266.257 646.997 270.437L646.975 278.036L668.725 277.985C680.687 277.956 691.375 278.244 692.475 278.623C694.457 279.308 694.475 278.877 694.475 229.575C694.475 202.219 694.659 166.112 694.883 149.337C695.326 116.298 694.814 111.153 689.688 97.0951C681.912 75.7721 665.271 60.9401 642.975 55.4581C634.683 53.4201 616.241 52.0601 608.975 52.9521ZM344.75 54.8001C322.711 57.9621 307.47 63.2911 292.975 72.9051C273.283 85.9661 261.464 98.0981 252.613 114.337C236.982 143.014 234.114 186.045 245.4 222.551C247.007 227.748 252.404 238.888 256.321 245.093C262.202 254.409 276.505 266.035 288.975 271.637C298.55 275.937 310.531 278.259 331.577 279.891C350.629 281.368 369.068 275.393 383.875 262.944L388.274 259.245L389.847 262.541C392.696 268.511 401.119 275.997 407.077 277.855C413.356 279.814 430.457 280.822 436.975 279.618L441.475 278.787L441.734 270.812L441.993 262.837L438.794 261.337C436.893 260.445 434.759 258.214 433.535 255.837C431.519 251.923 431.486 250.834 431.975 205.337C432.25 179.762 432.475 136.595 432.475 109.409V59.9821L429.475 59.1741C411.736 54.3971 364.539 51.9611 344.75 54.8001ZM955.069 103.587C955.172 129.575 954.916 163.887 954.5 179.837C953.46 219.722 955.132 232.186 963.731 248.651C968.613 257.999 980.541 269.037 991.475 274.326C1004.25 280.506 1016.77 282.701 1035.88 282.109C1050.16 281.666 1052.3 281.348 1061.29 278.335C1072.07 274.717 1080.13 270.214 1088.14 263.337C1091.02 260.862 1093.77 258.961 1094.25 259.112C1094.73 259.263 1094.82 258.891 1094.44 258.285C1094.07 257.679 1094.78 256.232 1096.03 255.069L1098.3 252.954L1097.63 266.166L1096.96 279.378L1099.72 278.652C1103.37 277.691 1135.68 277.717 1139.36 278.684L1142.24 279.441L1141.62 271.139C1141.29 266.573 1140.72 237.412 1140.37 206.337C1139.72 150.234 1140.92 87.7531 1143.02 67.3991C1143.59 61.9491 1143.63 57.5881 1143.12 57.0791C1142.61 56.5701 1137.62 56.9061 1131.3 57.8751C1121.18 59.4291 1119.57 59.4341 1109.41 57.9451C1103.38 57.0611 1098 56.3371 1097.46 56.3371C1096.82 56.3371 1096.47 81.4551 1096.47 127.587C1096.47 203.893 1096.47 203.978 1091.3 217.337C1084.32 235.386 1073.1 245.868 1057.18 249.221C1049.72 250.79 1037.43 250.608 1030.59 248.826C1014.51 244.637 1002.71 230.869 998.882 211.837C996.216 198.576 997.542 107.029 1000.98 66.8511C1001.45 61.3591 1001.68 56.7051 1001.48 56.5081C1001.28 56.3121 995.801 56.9011 989.298 57.8171C978.428 59.3501 976.634 59.3571 967.049 57.9101C961.314 57.0451 956.231 56.3371 955.752 56.3371C955.267 56.3371 954.964 77.2881 955.069 103.587ZM383.36 78.2931L385.874 79.2491L385.309 154.543C384.755 228.425 384.705 229.918 382.643 234.167C378.704 242.279 368.906 248.962 356.744 251.829C327.081 258.823 299.359 239.959 290.078 206.465C282.443 178.914 286.346 137.811 298.72 115.452C308.882 97.0881 324.634 85.1341 345.771 79.7461C352.437 78.0461 357.562 77.5041 367.66 77.4321C374.912 77.3801 381.976 77.7671 383.36 78.2931ZM1157.93 249.59C1152.88 252.991 1150.49 257.817 1150.58 264.408C1150.71 274.562 1156.92 280.804 1166.88 280.804C1177.22 280.804 1182.97 274.855 1182.97 264.17C1182.97 257.713 1180.58 252.733 1175.98 249.587C1171.37 246.441 1162.6 246.443 1157.93 249.59ZM1170.92 253.284C1171.9 253.904 1170.89 254.142 1167.77 254.021C1165.23 253.923 1163.37 253.504 1163.63 253.09C1164.27 252.044 1169.17 252.174 1170.92 253.284ZM1159.83 263.337C1159.97 267.887 1159.66 271.337 1159.12 271.337C1158.12 271.337 1155.97 266.055 1155.97 263.589C1155.97 262.323 1158.87 255.337 1159.4 255.337C1159.51 255.337 1159.7 258.937 1159.83 263.337ZM1176.97 263.866C1176.97 271.64 1175.13 273.473 1172.47 268.337C1171.1 265.684 1171.1 265.337 1172.43 265.337C1174.5 265.337 1175.47 260.759 1174.09 257.513L1172.94 254.837L1174.96 257.198C1176.3 258.772 1176.97 260.994 1176.97 263.866ZM1169.47 260.337C1169.47 261.162 1168.46 261.981 1167.22 262.157C1165.49 262.402 1164.97 261.983 1164.97 260.337C1164.97 258.691 1165.49 258.272 1167.22 258.517C1168.46 258.693 1169.47 259.512 1169.47 260.337ZM1168.32 270.837L1170.83 275.337H1166.7C1163.49 275.337 1162.84 275.07 1163.77 274.137C1164.43 273.477 1164.97 271.452 1164.97 269.637C1164.97 267.822 1165.16 266.337 1165.39 266.337C1165.62 266.337 1166.94 268.362 1168.32 270.837ZM0.642849 313.003C-0.311151 313.956 -0.15715 414.581 0.79985 416.088C1.43385 417.087 116.508 417.339 571.984 417.339C885.698 417.339 1142.74 416.974 1143.18 416.529C1143.63 416.083 1143.88 392.57 1143.73 364.278L1143.47 312.837L572.393 312.586C258.297 312.448 1.00985 312.636 0.642849 313.003Z" fill="#B0B0B0"/>
</svg>
