<svg width="225" height="89" viewBox="0 0 225 89" fill="none" xmlns="http://www.w3.org/2000/svg">
<path fill-rule="evenodd" clip-rule="evenodd" d="M31.3516 1.72207C18.0956 6.44407 9.00256 12.8631 5.43756 20.0181C2.39656 26.1211 2.26556 28.8781 4.75656 34.3621C7.23456 39.8191 12.5176 44.0271 23.5306 49.3141C28.5726 51.7351 33.4096 54.7321 34.2806 55.9761C35.1516 57.2191 35.8636 60.2311 35.8636 62.6681C35.8636 66.5251 35.3536 67.5861 31.9356 70.8371C26.7766 75.7451 19.1116 79.3801 9.86356 81.3051C1.93256 82.9561 -0.798438 84.6251 0.195562 87.2131C0.642562 88.3781 2.20056 88.7911 6.14856 88.7911C25.5546 88.7911 43.3826 78.1341 47.4646 64.0931C50.6656 53.0801 47.0866 47.7241 30.9586 39.3941C19.4356 33.4431 14.8636 29.5711 14.8636 25.7641C14.8636 19.8641 23.3456 13.2561 34.8636 10.1861C38.4386 9.23207 41.7116 8.15807 42.1366 7.79907C42.5616 7.43907 42.2186 5.49007 41.3736 3.46807C39.6266 -0.712929 38.6606 -0.880931 31.3516 1.72207ZM50.8636 44.2911V74.7911H56.3356H61.8076L62.0856 61.2931L62.3636 47.7951L72.7206 61.2931L83.0766 74.7911H92.2946H101.512L103.873 67.2611L106.235 59.7311L117.768 60.0111L129.301 60.2911L131.395 67.2911L133.49 74.2911L138.677 74.5931C141.53 74.7601 143.864 74.4991 143.864 74.0151C143.864 73.2681 133.054 40.8931 125.827 19.9961L123.65 13.7011L117.586 13.9961L111.523 14.2911L102.36 41.7911C97.3196 56.9161 92.7846 69.1001 92.2806 68.8661C91.4486 68.4801 72.7826 46.0871 71.3196 43.7201C70.9796 43.1701 76.1376 36.4391 82.7826 28.7631C89.4266 21.0871 94.8636 14.5781 94.8636 14.2991C94.8636 14.0191 92.5016 13.8171 89.6136 13.8491L84.3636 13.9071L73.3636 26.7041L62.3636 39.5021L62.0846 26.6461L61.8056 13.7911H56.3346H50.8636V44.2911ZM143.864 37.8901C143.864 64.6941 144.161 66.2111 150.51 71.7851L153.934 74.7911H168.374H182.815L185.089 67.3001L187.364 59.8101L199.033 59.8001L210.702 59.7911L212.929 67.2911L215.155 74.7911H220.01C222.68 74.7911 224.864 74.4481 224.864 74.0281C224.864 73.6091 220.44 59.9961 215.032 43.7781L205.201 14.2911L199.189 13.9971L193.177 13.7041L184.733 39.4971L176.288 65.2911L168.838 65.5901C159.17 65.9771 157.21 65.4061 154.837 61.5141C153.039 58.5661 152.871 56.3961 152.868 36.0411L152.864 13.7911H148.364H143.864V37.8901ZM121.882 37.3461C124.072 43.8641 125.864 49.5561 125.864 49.9941C125.864 51.0061 109.87 51.0521 109.847 50.0411C109.819 48.8731 117.33 24.9421 117.632 25.2351C117.78 25.3781 119.693 30.8281 121.882 37.3461ZM199.529 50.5831C195.177 50.7441 191.4 50.6601 191.136 50.3961C190.757 50.0181 195.819 33.2721 198.574 25.7911C198.878 24.9661 200.997 30.1411 203.284 37.2911L207.442 50.2911L199.529 50.5831Z" fill="#B0B0B0"/>
</svg>
